<?xml version="1.0" encoding="UTF-8" standalone="no"?>
<!DOCTYPE svg PUBLIC "-//W3C//DTD SVG 1.1//EN"
 "http://www.w3.org/Graphics/SVG/1.1/DTD/svg11.dtd">
<!-- Generated by graphviz version 2.44.1 (20200629.0846)
 -->
<!-- Title: autheflow Pages: 1 -->
<svg width="672pt" height="505pt"
 viewBox="0.00 0.00 671.50 505.00" xmlns="http://www.w3.org/2000/svg" xmlns:xlink="http://www.w3.org/1999/xlink">
<g id="graph0" class="graph" transform="scale(1 1) rotate(0) translate(4 501)">
<title>autheflow</title>
<polygon fill="white" stroke="transparent" points="-4,4 -4,-501 667.5,-501 667.5,4 -4,4"/>
<!-- user -->
<g id="node1" class="node">
<title>user</title>
<polygon fill="none" stroke="black" points="42,-497 0,-497 0,-447 42,-447 42,-497"/>
<text text-anchor="middle" x="21" y="-468.3" font-family="Times,serif" font-size="14.00">User</text>
</g>
<!-- a1 -->
<g id="node5" class="node">
<title>a1</title>
</g>
<!-- user&#45;&gt;a1 -->
<g id="edge1" class="edge">
<title>user&#45;&gt;a1</title>
<path fill="none" stroke="black" stroke-dasharray="5,2" d="M21,-446.89C21,-430.37 21,-411.24 21,-410.06"/>
</g>
<!-- idp -->
<g id="node2" class="node">
<title>idp</title>
<polygon fill="none" stroke="black" points="231.5,-497 156.5,-497 156.5,-447 231.5,-447 231.5,-497"/>
<text text-anchor="middle" x="194" y="-468.3" font-family="Times,serif" font-size="14.00">OIDC IDP</text>
</g>
<!-- b1 -->
<g id="node16" class="node">
<title>b1</title>
</g>
<!-- idp&#45;&gt;b1 -->
<g id="edge12" class="edge">
<title>idp&#45;&gt;b1</title>
<path fill="none" stroke="black" stroke-dasharray="5,2" d="M194,-446.89C194,-430.37 194,-411.24 194,-410.06"/>
</g>
<!-- k8s -->
<g id="node3" class="node">
<title>k8s</title>
<polygon fill="none" stroke="black" points="428,-497 318,-497 318,-447 428,-447 428,-497"/>
<text text-anchor="middle" x="373" y="-468.3" font-family="Times,serif" font-size="14.00">Kube API Server</text>
</g>
<!-- c1 -->
<g id="node27" class="node">
<title>c1</title>
</g>
<!-- k8s&#45;&gt;c1 -->
<g id="edge23" class="edge">
<title>k8s&#45;&gt;c1</title>
<path fill="none" stroke="black" stroke-dasharray="5,2" d="M373,-446.89C373,-430.37 373,-411.24 373,-410.06"/>
</g>
<!-- auth -->
<g id="node4" class="node">
<title>auth</title>
<polygon fill="none" stroke="black" points="663.5,-497 536.5,-497 536.5,-447 663.5,-447 663.5,-497"/>
<text text-anchor="middle" x="600" y="-468.3" font-family="Times,serif" font-size="14.00">OIDC Authenticator</text>
</g>
<!-- d1 -->
<g id="node38" class="node">
<title>d1</title>
</g>
<!-- auth&#45;&gt;d1 -->
<g id="edge34" class="edge">
<title>auth&#45;&gt;d1</title>
<path fill="none" stroke="black" stroke-dasharray="5,2" d="M600,-446.89C600,-430.37 600,-411.24 600,-410.06"/>
</g>
<!-- a2 -->
<g id="node6" class="node">
<title>a2</title>
</g>
<!-- a1&#45;&gt;a2 -->
<g id="edge2" class="edge">
<title>a1&#45;&gt;a2</title>
<path fill="none" stroke="black" stroke-dasharray="5,2" d="M21,-408.89C21,-406.79 21,-374.14 21,-372.1"/>
</g>
<!-- a1&#45;&gt;b1 -->
<g id="edge45" class="edge">
<title>a1&#45;&gt;b1</title>
<path fill="none" stroke="black" d="M21.77,-409.5C32.27,-409.5 146.87,-409.5 183.1,-409.5"/>
<polygon fill="black" stroke="black" points="183.29,-413 193.29,-409.5 183.29,-406 183.29,-413"/>
<text text-anchor="middle" x="107.5" y="-416.3" font-family="Times,serif" font-size="14.00">authenticate</text>
</g>
<!-- a3 -->
<g id="node7" class="node">
<title>a3</title>
</g>
<!-- a2&#45;&gt;a3 -->
<g id="edge3" class="edge">
<title>a2&#45;&gt;a3</title>
<path fill="none" stroke="black" stroke-width="5" d="M21,-370.89C21,-368.79 21,-336.14 21,-334.1"/>
</g>
<!-- b2 -->
<g id="node17" class="node">
<title>b2</title>
</g>
<!-- a2&#45;&gt;b2 -->
<g id="edge46" class="edge">
<title>a2&#45;&gt;b2</title>
<path fill="none" stroke="black" d="M32.11,-371.5C68.63,-371.5 183.19,-371.5 193.29,-371.5"/>
<polygon fill="black" stroke="black" points="31.77,-368 21.77,-371.5 31.77,-375 31.77,-368"/>
<text text-anchor="middle" x="107.5" y="-378.3" font-family="Times,serif" font-size="14.00">id_token</text>
</g>
<!-- a4 -->
<g id="node8" class="node">
<title>a4</title>
</g>
<!-- a3&#45;&gt;a4 -->
<g id="edge4" class="edge">
<title>a3&#45;&gt;a4</title>
<path fill="none" stroke="black" stroke-dasharray="5,2" d="M21,-332.89C21,-330.79 21,-298.14 21,-296.1"/>
</g>
<!-- b3 -->
<g id="node18" class="node">
<title>b3</title>
</g>
<!-- a3&#45;&gt;b3 -->
<g id="edge47" class="edge">
<title>a3&#45;&gt;b3</title>
<path fill="none" stroke="black" d="M21.77,-333.5C33.76,-333.5 181.74,-333.5 193.29,-333.5"/>
<text text-anchor="middle" x="107.5" y="-355.3" font-family="Times,serif" font-size="14.00">API call with</text>
<text text-anchor="middle" x="107.5" y="-340.3" font-family="Times,serif" font-size="14.00">id_token</text>
</g>
<!-- a5 -->
<g id="node9" class="node">
<title>a5</title>
</g>
<!-- a4&#45;&gt;a5 -->
<g id="edge5" class="edge">
<title>a4&#45;&gt;a5</title>
<path fill="none" stroke="black" stroke-dasharray="5,2" d="M21,-294.89C21,-292.79 21,-260.14 21,-258.1"/>
</g>
<!-- a6 -->
<g id="node10" class="node">
<title>a6</title>
</g>
<!-- a5&#45;&gt;a6 -->
<g id="edge6" class="edge">
<title>a5&#45;&gt;a6</title>
<path fill="none" stroke="black" stroke-dasharray="5,2" d="M21,-256.89C21,-254.79 21,-222.14 21,-220.1"/>
</g>
<!-- a7 -->
<g id="node11" class="node">
<title>a7</title>
</g>
<!-- a6&#45;&gt;a7 -->
<g id="edge7" class="edge">
<title>a6&#45;&gt;a7</title>
<path fill="none" stroke="black" stroke-dasharray="5,2" d="M21,-218.89C21,-216.79 21,-184.14 21,-182.1"/>
</g>
<!-- a8 -->
<g id="node12" class="node">
<title>a8</title>
</g>
<!-- a7&#45;&gt;a8 -->
<g id="edge8" class="edge">
<title>a7&#45;&gt;a8</title>
<path fill="none" stroke="black" stroke-dasharray="5,2" d="M21,-180.89C21,-178.79 21,-146.14 21,-144.1"/>
</g>
<!-- a9 -->
<g id="node13" class="node">
<title>a9</title>
</g>
<!-- a8&#45;&gt;a9 -->
<g id="edge9" class="edge">
<title>a8&#45;&gt;a9</title>
<path fill="none" stroke="black" stroke-dasharray="5,2" d="M21,-142.95C21,-140.98 21,-78.98 21,-77.05"/>
</g>
<!-- a10 -->
<g id="node14" class="node">
<title>a10</title>
</g>
<!-- a9&#45;&gt;a10 -->
<g id="edge10" class="edge">
<title>a9&#45;&gt;a10</title>
<path fill="none" stroke="black" stroke-dasharray="5,2" d="M21,-75.89C21,-73.79 21,-41.14 21,-39.1"/>
</g>
<!-- a11 -->
<g id="node15" class="node">
<title>a11</title>
</g>
<!-- a10&#45;&gt;a11 -->
<g id="edge11" class="edge">
<title>a10&#45;&gt;a11</title>
<path fill="none" stroke="black" stroke-dasharray="5,2" d="M21,-37.89C21,-35.79 21,-3.14 21,-1.1"/>
</g>
<!-- b10 -->
<g id="node25" class="node">
<title>b10</title>
</g>
<!-- a10&#45;&gt;b10 -->
<g id="edge55" class="edge">
<title>a10&#45;&gt;b10</title>
<path fill="none" stroke="black" d="M31.73,-38.5C85.6,-38.5 139.46,-38.5 193.33,-38.5"/>
<polygon fill="black" stroke="black" points="31.68,-35 21.68,-38.5 31.68,-42 31.68,-35"/>
</g>
<!-- b1&#45;&gt;b2 -->
<g id="edge13" class="edge">
<title>b1&#45;&gt;b2</title>
<path fill="none" stroke="black" stroke-width="5" d="M194,-408.89C194,-406.79 194,-374.14 194,-372.1"/>
</g>
<!-- b2&#45;&gt;b3 -->
<g id="edge14" class="edge">
<title>b2&#45;&gt;b3</title>
<path fill="none" stroke="black" stroke-dasharray="5,2" d="M194,-370.89C194,-368.79 194,-336.14 194,-334.1"/>
</g>
<!-- b4 -->
<g id="node19" class="node">
<title>b4</title>
</g>
<!-- b3&#45;&gt;b4 -->
<g id="edge15" class="edge">
<title>b3&#45;&gt;b4</title>
<path fill="none" stroke="black" stroke-dasharray="5,2" d="M194,-332.89C194,-330.79 194,-298.14 194,-296.1"/>
</g>
<!-- c3 -->
<g id="node29" class="node">
<title>c3</title>
</g>
<!-- b3&#45;&gt;c3 -->
<g id="edge48" class="edge">
<title>b3&#45;&gt;c3</title>
<path fill="none" stroke="black" d="M194.7,-333.5C250.55,-333.5 306.4,-333.5 362.24,-333.5"/>
<polygon fill="black" stroke="black" points="362.3,-337 372.3,-333.5 362.3,-330 362.3,-337"/>
</g>
<!-- b5 -->
<g id="node20" class="node">
<title>b5</title>
</g>
<!-- b4&#45;&gt;b5 -->
<g id="edge16" class="edge">
<title>b4&#45;&gt;b5</title>
<path fill="none" stroke="black" stroke-dasharray="5,2" d="M194,-294.89C194,-292.79 194,-260.14 194,-258.1"/>
</g>
<!-- b6 -->
<g id="node21" class="node">
<title>b6</title>
</g>
<!-- b5&#45;&gt;b6 -->
<g id="edge17" class="edge">
<title>b5&#45;&gt;b6</title>
<path fill="none" stroke="black" stroke-dasharray="5,2" d="M194,-256.89C194,-254.79 194,-222.14 194,-220.1"/>
</g>
<!-- b7 -->
<g id="node22" class="node">
<title>b7</title>
</g>
<!-- b6&#45;&gt;b7 -->
<g id="edge18" class="edge">
<title>b6&#45;&gt;b7</title>
<path fill="none" stroke="black" stroke-dasharray="5,2" d="M194,-218.89C194,-216.79 194,-184.14 194,-182.1"/>
</g>
<!-- b8 -->
<g id="node23" class="node">
<title>b8</title>
</g>
<!-- b7&#45;&gt;b8 -->
<g id="edge19" class="edge">
<title>b7&#45;&gt;b8</title>
<path fill="none" stroke="black" stroke-dasharray="5,2" d="M194,-180.89C194,-178.79 194,-146.14 194,-144.1"/>
</g>
<!-- b9 -->
<g id="node24" class="node">
<title>b9</title>
</g>
<!-- b8&#45;&gt;b9 -->
<g id="edge20" class="edge">
<title>b8&#45;&gt;b9</title>
<path fill="none" stroke="black" stroke-dasharray="5,2" d="M194,-142.95C194,-140.98 194,-78.98 194,-77.05"/>
</g>
<!-- b9&#45;&gt;b10 -->
<g id="edge21" class="edge">
<title>b9&#45;&gt;b10</title>
<path fill="none" stroke="black" stroke-dasharray="5,2" d="M194,-75.89C194,-73.79 194,-41.14 194,-39.1"/>
</g>
<!-- b11 -->
<g id="node26" class="node">
<title>b11</title>
</g>
<!-- b10&#45;&gt;b11 -->
<g id="edge22" class="edge">
<title>b10&#45;&gt;b11</title>
<path fill="none" stroke="black" stroke-dasharray="5,2" d="M194,-37.89C194,-35.79 194,-3.14 194,-1.1"/>
</g>
<!-- c10 -->
<g id="node36" class="node">
<title>c10</title>
</g>
<!-- b10&#45;&gt;c10 -->
<g id="edge56" class="edge">
<title>b10&#45;&gt;c10</title>
<path fill="none" stroke="black" d="M194.51,-38.5C204.6,-38.5 360.12,-38.5 372.25,-38.5"/>
<text text-anchor="middle" x="283.5" y="-60.3" font-family="Times,serif" font-size="14.00">API call</text>
<text text-anchor="middle" x="283.5" y="-45.3" font-family="Times,serif" font-size="14.00">response</text>
</g>
<!-- c2 -->
<g id="node28" class="node">
<title>c2</title>
</g>
<!-- c1&#45;&gt;c2 -->
<g id="edge24" class="edge">
<title>c1&#45;&gt;c2</title>
<path fill="none" stroke="black" stroke-dasharray="5,2" d="M373,-408.89C373,-406.79 373,-374.14 373,-372.1"/>
</g>
<!-- c2&#45;&gt;c3 -->
<g id="edge25" class="edge">
<title>c2&#45;&gt;c3</title>
<path fill="none" stroke="black" stroke-dasharray="5,2" d="M373,-370.89C373,-368.79 373,-336.14 373,-334.1"/>
</g>
<!-- c4 -->
<g id="node30" class="node">
<title>c4</title>
</g>
<!-- c3&#45;&gt;c4 -->
<g id="edge26" class="edge">
<title>c3&#45;&gt;c4</title>
<path fill="none" stroke="black" stroke-width="5" d="M373,-332.89C373,-330.79 373,-298.14 373,-296.1"/>
</g>
<!-- c5 -->
<g id="node31" class="node">
<title>c5</title>
</g>
<!-- c4&#45;&gt;c5 -->
<g id="edge27" class="edge">
<title>c4&#45;&gt;c5</title>
<path fill="none" stroke="black" stroke-dasharray="5,2" d="M373,-294.89C373,-292.79 373,-260.14 373,-258.1"/>
</g>
<!-- d4 -->
<g id="node41" class="node">
<title>d4</title>
</g>
<!-- c4&#45;&gt;d4 -->
<g id="edge49" class="edge">
<title>c4&#45;&gt;d4</title>
<path fill="none" stroke="black" d="M373.65,-295.5C385.16,-295.5 546,-295.5 589.32,-295.5"/>
<polygon fill="black" stroke="black" points="589.39,-299 599.39,-295.5 589.39,-292 589.39,-299"/>
<text text-anchor="middle" x="486.5" y="-317.3" font-family="Times,serif" font-size="14.00">TokenReview&#45;1 for</text>
<text text-anchor="middle" x="486.5" y="-302.3" font-family="Times,serif" font-size="14.00">id_token</text>
</g>
<!-- c6 -->
<g id="node32" class="node">
<title>c6</title>
</g>
<!-- c5&#45;&gt;c6 -->
<g id="edge28" class="edge">
<title>c5&#45;&gt;c6</title>
<path fill="none" stroke="black" stroke-width="5" d="M373,-256.89C373,-254.79 373,-222.14 373,-220.1"/>
</g>
<!-- d5 -->
<g id="node42" class="node">
<title>d5</title>
</g>
<!-- c5&#45;&gt;d5 -->
<g id="edge50" class="edge">
<title>c5&#45;&gt;d5</title>
<path fill="none" stroke="black" d="M383.83,-257.5C427.42,-257.5 588.22,-257.5 599.39,-257.5"/>
<polygon fill="black" stroke="black" points="383.65,-254 373.65,-257.5 383.65,-261 383.65,-254"/>
<text text-anchor="middle" x="486.5" y="-279.3" font-family="Times,serif" font-size="14.00">TokenReview&#45;2 for</text>
<text text-anchor="middle" x="486.5" y="-264.3" font-family="Times,serif" font-size="14.00">API Server Identity</text>
</g>
<!-- c7 -->
<g id="node33" class="node">
<title>c7</title>
</g>
<!-- c6&#45;&gt;c7 -->
<g id="edge29" class="edge">
<title>c6&#45;&gt;c7</title>
<path fill="none" stroke="black" stroke-dasharray="5,2" d="M373,-218.89C373,-216.79 373,-184.14 373,-182.1"/>
</g>
<!-- d6 -->
<g id="node43" class="node">
<title>d6</title>
</g>
<!-- c6&#45;&gt;d6 -->
<g id="edge51" class="edge">
<title>c6&#45;&gt;d6</title>
<path fill="none" stroke="black" d="M373.65,-219.5C385.16,-219.5 546,-219.5 589.32,-219.5"/>
<polygon fill="black" stroke="black" points="589.39,-223 599.39,-219.5 589.39,-216 589.39,-223"/>
<text text-anchor="middle" x="486.5" y="-241.3" font-family="Times,serif" font-size="14.00">TokenReview&#45;2</text>
<text text-anchor="middle" x="486.5" y="-226.3" font-family="Times,serif" font-size="14.00">response</text>
</g>
<!-- c8 -->
<g id="node34" class="node">
<title>c8</title>
</g>
<!-- c7&#45;&gt;c8 -->
<g id="edge30" class="edge">
<title>c7&#45;&gt;c8</title>
<path fill="none" stroke="black" stroke-width="5" d="M373,-180.89C373,-178.79 373,-146.14 373,-144.1"/>
</g>
<!-- d7 -->
<g id="node44" class="node">
<title>d7</title>
</g>
<!-- c7&#45;&gt;d7 -->
<g id="edge52" class="edge">
<title>c7&#45;&gt;d7</title>
<path fill="none" stroke="black" d="M383.83,-181.5C427.42,-181.5 588.22,-181.5 599.39,-181.5"/>
<polygon fill="black" stroke="black" points="383.65,-178 373.65,-181.5 383.65,-185 383.65,-178"/>
<text text-anchor="middle" x="486.5" y="-203.3" font-family="Times,serif" font-size="14.00">SubjectAccessReview for</text>
<text text-anchor="middle" x="486.5" y="-188.3" font-family="Times,serif" font-size="14.00">API Server Identity</text>
</g>
<!-- c9 -->
<g id="node35" class="node">
<title>c9</title>
</g>
<!-- c8&#45;&gt;c9 -->
<g id="edge31" class="edge">
<title>c8&#45;&gt;c9</title>
<path fill="none" stroke="black" stroke-dasharray="5,2" d="M373,-142.95C373,-140.98 373,-78.98 373,-77.05"/>
</g>
<!-- d8 -->
<g id="node45" class="node">
<title>d8</title>
</g>
<!-- c8&#45;&gt;d8 -->
<g id="edge53" class="edge">
<title>c8&#45;&gt;d8</title>
<path fill="none" stroke="black" d="M373.65,-143.5C385.16,-143.5 546,-143.5 589.32,-143.5"/>
<polygon fill="black" stroke="black" points="589.39,-147 599.39,-143.5 589.39,-140 589.39,-147"/>
<text text-anchor="middle" x="486.5" y="-165.3" font-family="Times,serif" font-size="14.00">SubjectAccessReview</text>
<text text-anchor="middle" x="486.5" y="-150.3" font-family="Times,serif" font-size="14.00">response</text>
</g>
<!-- c9&#45;&gt;c10 -->
<g id="edge32" class="edge">
<title>c9&#45;&gt;c10</title>
<path fill="none" stroke="black" stroke-width="5" d="M373,-75.89C373,-73.79 373,-41.14 373,-39.1"/>
</g>
<!-- d9 -->
<g id="node46" class="node">
<title>d9</title>
</g>
<!-- c9&#45;&gt;d9 -->
<g id="edge54" class="edge">
<title>c9&#45;&gt;d9</title>
<path fill="none" stroke="black" d="M383.83,-76.5C427.42,-76.5 588.22,-76.5 599.39,-76.5"/>
<polygon fill="black" stroke="black" points="383.65,-73 373.65,-76.5 383.65,-80 383.65,-73"/>
<text text-anchor="middle" x="486.5" y="-98.3" font-family="Times,serif" font-size="14.00">TokenReview&#45;1</text>
<text text-anchor="middle" x="486.5" y="-83.3" font-family="Times,serif" font-size="14.00">response</text>
</g>
<!-- c11 -->
<g id="node37" class="node">
<title>c11</title>
</g>
<!-- c10&#45;&gt;c11 -->
<g id="edge33" class="edge">
<title>c10&#45;&gt;c11</title>
<path fill="none" stroke="black" stroke-dasharray="5,2" d="M373,-37.89C373,-35.79 373,-3.14 373,-1.1"/>
</g>
<!-- d2 -->
<g id="node39" class="node">
<title>d2</title>
</g>
<!-- d1&#45;&gt;d2 -->
<g id="edge35" class="edge">
<title>d1&#45;&gt;d2</title>
<path fill="none" stroke="black" stroke-dasharray="5,2" d="M600,-408.89C600,-406.79 600,-374.14 600,-372.1"/>
</g>
<!-- d3 -->
<g id="node40" class="node">
<title>d3</title>
</g>
<!-- d2&#45;&gt;d3 -->
<g id="edge36" class="edge">
<title>d2&#45;&gt;d3</title>
<path fill="none" stroke="black" stroke-dasharray="5,2" d="M600,-370.89C600,-368.79 600,-336.14 600,-334.1"/>
</g>
<!-- d3&#45;&gt;d4 -->
<g id="edge37" class="edge">
<title>d3&#45;&gt;d4</title>
<path fill="none" stroke="black" stroke-dasharray="5,2" d="M600,-332.89C600,-330.79 600,-298.14 600,-296.1"/>
</g>
<!-- d4&#45;&gt;d5 -->
<g id="edge38" class="edge">
<title>d4&#45;&gt;d5</title>
<path fill="none" stroke="black" stroke-width="5" d="M600,-294.89C600,-292.79 600,-260.14 600,-258.1"/>
</g>
<!-- d5&#45;&gt;d6 -->
<g id="edge39" class="edge">
<title>d5&#45;&gt;d6</title>
<path fill="none" stroke="black" stroke-dasharray="5,2" d="M600,-256.89C600,-254.79 600,-222.14 600,-220.1"/>
</g>
<!-- d6&#45;&gt;d7 -->
<g id="edge40" class="edge">
<title>d6&#45;&gt;d7</title>
<path fill="none" stroke="black" stroke-width="5" d="M600,-218.89C600,-216.79 600,-184.14 600,-182.1"/>
</g>
<!-- d7&#45;&gt;d8 -->
<g id="edge41" class="edge">
<title>d7&#45;&gt;d8</title>
<path fill="none" stroke="black" stroke-dasharray="5,2" d="M600,-180.89C600,-178.79 600,-146.14 600,-144.1"/>
</g>
<!-- d8&#45;&gt;d9 -->
<g id="edge42" class="edge">
<title>d8&#45;&gt;d9</title>
<path fill="none" stroke="black" stroke-width="5" d="M600,-142.95C600,-141.46 600,-105.49 600,-87.32"/>
<polygon fill="black" stroke="black" stroke-width="5" points="604.38,-87.05 600,-77.05 595.63,-87.05 604.38,-87.05"/>
<text text-anchor="middle" x="629.5" y="-113.8" font-family="Times,serif" font-size="14.00"> &#160;validate</text>
<text text-anchor="middle" x="629.5" y="-98.8" font-family="Times,serif" font-size="14.00"> &#160;&#160;id_token</text>
</g>
<!-- d10 -->
<g id="node47" class="node">
<title>d10</title>
</g>
<!-- d9&#45;&gt;d10 -->
<g id="edge43" class="edge">
<title>d9&#45;&gt;d10</title>
<path fill="none" stroke="black" stroke-dasharray="5,2" d="M600,-75.89C600,-73.79 600,-41.14 600,-39.1"/>
</g>
<!-- d11 -->
<g id="node48" class="node">
<title>d11</title>
</g>
<!-- d10&#45;&gt;d11 -->
<g id="edge44" class="edge">
<title>d10&#45;&gt;d11</title>
<path fill="none" stroke="black" stroke-dasharray="5,2" d="M600,-37.89C600,-35.79 600,-3.14 600,-1.1"/>
</g>
</g>
</svg>
