<?xml version="1.0" encoding="UTF-8" standalone="no"?>
<!DOCTYPE svg PUBLIC "-//W3C//DTD SVG 1.1//EN"
 "http://www.w3.org/Graphics/SVG/1.1/DTD/svg11.dtd">
<!-- Generated by graphviz version 2.44.1 (20200629.0846)
 -->
<!-- Title: oidc_registration Pages: 1 -->
<svg width="874pt" height="477pt"
 viewBox="0.00 0.00 873.50 477.00" xmlns="http://www.w3.org/2000/svg" xmlns:xlink="http://www.w3.org/1999/xlink">
<g id="graph0" class="graph" transform="scale(1 1) rotate(0) translate(4 473)">
<title>oidc_registration</title>
<polygon fill="white" stroke="transparent" points="-4,4 -4,-473 869.5,-473 869.5,4 -4,4"/>
<!-- admin -->
<g id="node1" class="node">
<title>admin</title>
<polygon fill="none" stroke="black" points="55,-469 0,-469 0,-419 55,-419 55,-469"/>
<text text-anchor="middle" x="27.5" y="-440.3" font-family="Times,serif" font-size="14.00">Admin</text>
</g>
<!-- ar1 -->
<g id="node5" class="node">
<title>ar1</title>
</g>
<!-- admin&#45;&gt;ar1 -->
<g id="edge1" class="edge">
<title>admin&#45;&gt;ar1</title>
<path fill="none" stroke="black" stroke-dasharray="5,2" d="M27.5,-418.89C27.5,-402.37 27.5,-383.24 27.5,-382.06"/>
</g>
<!-- idpr -->
<g id="node2" class="node">
<title>idpr</title>
<polygon fill="none" stroke="black" points="315,-469 230,-469 230,-419 315,-419 315,-469"/>
<text text-anchor="middle" x="272.5" y="-440.3" font-family="Times,serif" font-size="14.00">Custom IDP</text>
</g>
<!-- br1 -->
<g id="node13" class="node">
<title>br1</title>
</g>
<!-- idpr&#45;&gt;br1 -->
<g id="edge9" class="edge">
<title>idpr&#45;&gt;br1</title>
<path fill="none" stroke="black" stroke-dasharray="5,2" d="M272.5,-418.89C272.5,-402.37 272.5,-383.24 272.5,-382.06"/>
</g>
<!-- k8sr -->
<g id="node3" class="node">
<title>k8sr</title>
<polygon fill="none" stroke="black" points="572.5,-469 462.5,-469 462.5,-419 572.5,-419 572.5,-469"/>
<text text-anchor="middle" x="517.5" y="-440.3" font-family="Times,serif" font-size="14.00">Kube API Server</text>
</g>
<!-- cr1 -->
<g id="node21" class="node">
<title>cr1</title>
</g>
<!-- k8sr&#45;&gt;cr1 -->
<g id="edge17" class="edge">
<title>k8sr&#45;&gt;cr1</title>
<path fill="none" stroke="black" stroke-dasharray="5,2" d="M517.5,-418.89C517.5,-402.37 517.5,-383.24 517.5,-382.06"/>
</g>
<!-- authr -->
<g id="node4" class="node">
<title>authr</title>
<polygon fill="none" stroke="black" points="826,-469 699,-469 699,-419 826,-419 826,-469"/>
<text text-anchor="middle" x="762.5" y="-440.3" font-family="Times,serif" font-size="14.00">OIDC Authenticator</text>
</g>
<!-- dr1 -->
<g id="node30" class="node">
<title>dr1</title>
</g>
<!-- authr&#45;&gt;dr1 -->
<g id="edge25" class="edge">
<title>authr&#45;&gt;dr1</title>
<path fill="none" stroke="black" stroke-dasharray="5,2" d="M762.5,-418.89C762.5,-402.37 762.5,-383.24 762.5,-382.06"/>
</g>
<!-- ar2 -->
<g id="node6" class="node">
<title>ar2</title>
</g>
<!-- ar1&#45;&gt;ar2 -->
<g id="edge2" class="edge">
<title>ar1&#45;&gt;ar2</title>
<path fill="none" stroke="black" stroke-dasharray="5,2" d="M27.5,-380.89C27.5,-378.79 27.5,-346.14 27.5,-344.1"/>
</g>
<!-- ar1&#45;&gt;br1 -->
<g id="edge33" class="edge">
<title>ar1&#45;&gt;br1</title>
<path fill="none" stroke="black" d="M28.2,-381.5C42.12,-381.5 258.34,-381.5 271.84,-381.5"/>
<text text-anchor="middle" x="150" y="-403.3" font-family="Times,serif" font-size="14.00">create</text>
<text text-anchor="middle" x="150" y="-388.3" font-family="Times,serif" font-size="14.00">OpenIDConnect</text>
</g>
<!-- ar3 -->
<g id="node7" class="node">
<title>ar3</title>
</g>
<!-- ar2&#45;&gt;ar3 -->
<g id="edge3" class="edge">
<title>ar2&#45;&gt;ar3</title>
<path fill="none" stroke="black" stroke-dasharray="5,2" d="M27.5,-342.89C27.5,-340.79 27.5,-308.14 27.5,-306.1"/>
</g>
<!-- ar4 -->
<g id="node8" class="node">
<title>ar4</title>
</g>
<!-- ar3&#45;&gt;ar4 -->
<g id="edge4" class="edge">
<title>ar3&#45;&gt;ar4</title>
<path fill="none" stroke="black" stroke-dasharray="5,2" d="M27.5,-304.89C27.5,-302.79 27.5,-270.14 27.5,-268.1"/>
</g>
<!-- ar5 -->
<g id="node9" class="node">
<title>ar5</title>
</g>
<!-- ar4&#45;&gt;ar5 -->
<g id="edge5" class="edge">
<title>ar4&#45;&gt;ar5</title>
<path fill="none" stroke="black" stroke-dasharray="5,2" d="M27.5,-266.89C27.5,-264.79 27.5,-232.14 27.5,-230.1"/>
</g>
<!-- ar6 -->
<g id="node10" class="node">
<title>ar6</title>
</g>
<!-- ar5&#45;&gt;ar6 -->
<g id="edge6" class="edge">
<title>ar5&#45;&gt;ar6</title>
<path fill="none" stroke="black" stroke-dasharray="5,2" d="M27.5,-228.89C27.5,-226.79 27.5,-194.14 27.5,-192.1"/>
</g>
<!-- ar7 -->
<g id="node11" class="node">
<title>ar7</title>
</g>
<!-- ar6&#45;&gt;ar7 -->
<g id="edge7" class="edge">
<title>ar6&#45;&gt;ar7</title>
<path fill="none" stroke="black" stroke-dasharray="5,2" d="M27.5,-190.92C27.5,-187.46 27.5,-78.49 27.5,-75.08"/>
</g>
<!-- ar8 -->
<g id="node12" class="node">
<title>ar8</title>
</g>
<!-- ar7&#45;&gt;ar8 -->
<g id="edge8" class="edge">
<title>ar7&#45;&gt;ar8</title>
<path fill="none" stroke="black" stroke-dasharray="5,2" d="M27.5,-72.95C27.5,-70.8 27.5,-3.16 27.5,-1.05"/>
</g>
<!-- br2 -->
<g id="node14" class="node">
<title>br2</title>
</g>
<!-- br1&#45;&gt;br2 -->
<g id="edge10" class="edge">
<title>br1&#45;&gt;br2</title>
<path fill="none" stroke="black" stroke-dasharray="5,2" d="M272.5,-380.89C272.5,-378.79 272.5,-346.14 272.5,-344.1"/>
</g>
<!-- br1&#45;&gt;cr1 -->
<g id="edge34" class="edge">
<title>br1&#45;&gt;cr1</title>
<path fill="none" stroke="black" d="M273.46,-381.5C351.01,-381.5 428.55,-381.5 506.1,-381.5"/>
<polygon fill="black" stroke="black" points="506.55,-385 516.55,-381.5 506.55,-378 506.55,-385"/>
</g>
<!-- br3 -->
<g id="node15" class="node">
<title>br3</title>
</g>
<!-- br2&#45;&gt;br3 -->
<g id="edge11" class="edge">
<title>br2&#45;&gt;br3</title>
<path fill="none" stroke="black" stroke-dasharray="5,2" d="M272.5,-342.89C272.5,-340.79 272.5,-308.14 272.5,-306.1"/>
</g>
<!-- br4 -->
<g id="node16" class="node">
<title>br4</title>
</g>
<!-- br3&#45;&gt;br4 -->
<g id="edge12" class="edge">
<title>br3&#45;&gt;br4</title>
<path fill="none" stroke="black" stroke-width="5" d="M272.5,-304.89C272.5,-302.79 272.5,-270.14 272.5,-268.1"/>
</g>
<!-- cr3 -->
<g id="node23" class="node">
<title>cr3</title>
</g>
<!-- br3&#45;&gt;cr3 -->
<g id="edge36" class="edge">
<title>br3&#45;&gt;cr3</title>
<path fill="none" stroke="black" d="M283.9,-305.5C361.45,-305.5 439,-305.5 516.55,-305.5"/>
<polygon fill="black" stroke="black" points="283.46,-302 273.46,-305.5 283.46,-309 283.46,-302"/>
</g>
<!-- br5 -->
<g id="node17" class="node">
<title>br5</title>
</g>
<!-- br4&#45;&gt;br5 -->
<g id="edge13" class="edge">
<title>br4&#45;&gt;br5</title>
<path fill="none" stroke="black" stroke-dasharray="5,2" d="M272.5,-266.89C272.5,-264.79 272.5,-232.14 272.5,-230.1"/>
</g>
<!-- cr4 -->
<g id="node24" class="node">
<title>cr4</title>
</g>
<!-- br4&#45;&gt;cr4 -->
<g id="edge40" class="edge">
<title>br4&#45;&gt;cr4</title>
<path fill="none" stroke="black" d="M273.2,-267.5C287.12,-267.5 503.34,-267.5 516.84,-267.5"/>
<text text-anchor="middle" x="395" y="-289.3" font-family="Times,serif" font-size="14.00">OIDC discovery</text>
<text text-anchor="middle" x="395" y="-274.3" font-family="Times,serif" font-size="14.00"> response</text>
</g>
<!-- br6 -->
<g id="node18" class="node">
<title>br6</title>
</g>
<!-- br5&#45;&gt;br6 -->
<g id="edge14" class="edge">
<title>br5&#45;&gt;br6</title>
<path fill="none" stroke="black" stroke-width="5" d="M272.5,-228.89C272.5,-226.79 272.5,-194.14 272.5,-192.1"/>
</g>
<!-- cr5 -->
<g id="node25" class="node">
<title>cr5</title>
</g>
<!-- br5&#45;&gt;cr5 -->
<g id="edge38" class="edge">
<title>br5&#45;&gt;cr5</title>
<path fill="none" stroke="black" d="M283.9,-229.5C361.45,-229.5 439,-229.5 516.55,-229.5"/>
<polygon fill="black" stroke="black" points="283.46,-226 273.46,-229.5 283.46,-233 283.46,-226"/>
</g>
<!-- br7 -->
<g id="node19" class="node">
<title>br7</title>
</g>
<!-- br6&#45;&gt;br7 -->
<g id="edge15" class="edge">
<title>br6&#45;&gt;br7</title>
<path fill="none" stroke="black" stroke-dasharray="5,2" d="M272.5,-190.92C272.5,-187.46 272.5,-78.49 272.5,-75.08"/>
</g>
<!-- cr6 -->
<g id="node26" class="node">
<title>cr6</title>
</g>
<!-- br6&#45;&gt;cr6 -->
<g id="edge42" class="edge">
<title>br6&#45;&gt;cr6</title>
<path fill="none" stroke="black" d="M273.2,-191.5C287.12,-191.5 503.34,-191.5 516.84,-191.5"/>
<text text-anchor="middle" x="395" y="-213.3" font-family="Times,serif" font-size="14.00">jwks_uri</text>
<text text-anchor="middle" x="395" y="-198.3" font-family="Times,serif" font-size="14.00"> response</text>
</g>
<!-- br8 -->
<g id="node20" class="node">
<title>br8</title>
</g>
<!-- br7&#45;&gt;br8 -->
<g id="edge16" class="edge">
<title>br7&#45;&gt;br8</title>
<path fill="none" stroke="black" stroke-dasharray="5,2" d="M272.5,-72.95C272.5,-70.8 272.5,-3.16 272.5,-1.05"/>
</g>
<!-- cr2 -->
<g id="node22" class="node">
<title>cr2</title>
</g>
<!-- cr1&#45;&gt;cr2 -->
<g id="edge18" class="edge">
<title>cr1&#45;&gt;cr2</title>
<path fill="none" stroke="black" stroke-width="5" d="M517.5,-380.89C517.5,-378.79 517.5,-346.14 517.5,-344.1"/>
</g>
<!-- cr2&#45;&gt;cr3 -->
<g id="edge19" class="edge">
<title>cr2&#45;&gt;cr3</title>
<path fill="none" stroke="black" stroke-dasharray="5,2" d="M517.5,-342.89C517.5,-340.79 517.5,-308.14 517.5,-306.1"/>
</g>
<!-- dr2 -->
<g id="node31" class="node">
<title>dr2</title>
</g>
<!-- cr2&#45;&gt;dr2 -->
<g id="edge35" class="edge">
<title>cr2&#45;&gt;dr2</title>
<path fill="none" stroke="black" d="M518.2,-343.5C530.68,-343.5 705.74,-343.5 751.58,-343.5"/>
<polygon fill="black" stroke="black" points="751.84,-347 761.84,-343.5 751.84,-340 751.84,-347"/>
<text text-anchor="middle" x="640" y="-350.3" font-family="Times,serif" font-size="14.00">watch</text>
</g>
<!-- cr3&#45;&gt;cr4 -->
<g id="edge20" class="edge">
<title>cr3&#45;&gt;cr4</title>
<path fill="none" stroke="black" stroke-dasharray="5,2" d="M517.5,-304.89C517.5,-302.79 517.5,-270.14 517.5,-268.1"/>
</g>
<!-- dr3 -->
<g id="node32" class="node">
<title>dr3</title>
</g>
<!-- cr3&#45;&gt;dr3 -->
<g id="edge37" class="edge">
<title>cr3&#45;&gt;dr3</title>
<path fill="none" stroke="black" d="M518.2,-305.5C532.12,-305.5 748.34,-305.5 761.84,-305.5"/>
<text text-anchor="middle" x="640" y="-327.3" font-family="Times,serif" font-size="14.00">OIDCdiscovery</text>
<text text-anchor="middle" x="640" y="-312.3" font-family="Times,serif" font-size="14.00"> request</text>
</g>
<!-- cr4&#45;&gt;cr5 -->
<g id="edge21" class="edge">
<title>cr4&#45;&gt;cr5</title>
<path fill="none" stroke="black" stroke-dasharray="5,2" d="M517.5,-266.89C517.5,-264.79 517.5,-232.14 517.5,-230.1"/>
</g>
<!-- dr4 -->
<g id="node33" class="node">
<title>dr4</title>
</g>
<!-- cr4&#45;&gt;dr4 -->
<g id="edge41" class="edge">
<title>cr4&#45;&gt;dr4</title>
<path fill="none" stroke="black" d="M518.46,-267.5C596.01,-267.5 673.55,-267.5 751.1,-267.5"/>
<polygon fill="black" stroke="black" points="751.55,-271 761.55,-267.5 751.55,-264 751.55,-271"/>
</g>
<!-- cr5&#45;&gt;cr6 -->
<g id="edge22" class="edge">
<title>cr5&#45;&gt;cr6</title>
<path fill="none" stroke="black" stroke-dasharray="5,2" d="M517.5,-228.89C517.5,-226.79 517.5,-194.14 517.5,-192.1"/>
</g>
<!-- dr5 -->
<g id="node34" class="node">
<title>dr5</title>
</g>
<!-- cr5&#45;&gt;dr5 -->
<g id="edge39" class="edge">
<title>cr5&#45;&gt;dr5</title>
<path fill="none" stroke="black" d="M518.2,-229.5C532.12,-229.5 748.34,-229.5 761.84,-229.5"/>
<text text-anchor="middle" x="640" y="-251.3" font-family="Times,serif" font-size="14.00">jwks_uri</text>
<text text-anchor="middle" x="640" y="-236.3" font-family="Times,serif" font-size="14.00"> request</text>
</g>
<!-- cr7 -->
<g id="node27" class="node">
<title>cr7</title>
</g>
<!-- cr6&#45;&gt;cr7 -->
<g id="edge23" class="edge">
<title>cr6&#45;&gt;cr7</title>
<path fill="none" stroke="black" stroke-dasharray="5,2" d="M517.5,-190.92C517.5,-187.46 517.5,-78.49 517.5,-75.08"/>
</g>
<!-- dr6 -->
<g id="node35" class="node">
<title>dr6</title>
</g>
<!-- cr6&#45;&gt;dr6 -->
<g id="edge43" class="edge">
<title>cr6&#45;&gt;dr6</title>
<path fill="none" stroke="black" d="M518.46,-191.5C596.01,-191.5 673.55,-191.5 751.1,-191.5"/>
<polygon fill="black" stroke="black" points="751.55,-195 761.55,-191.5 751.55,-188 751.55,-195"/>
</g>
<!-- cr8 -->
<g id="node28" class="node">
<title>cr8</title>
</g>
<!-- cr7&#45;&gt;cr8 -->
<g id="edge24" class="edge">
<title>cr7&#45;&gt;cr8</title>
<path fill="none" stroke="black" stroke-dasharray="5,2" d="M517.5,-72.95C517.5,-70.8 517.5,-3.16 517.5,-1.05"/>
</g>
<!-- dr7 -->
<g id="node29" class="node">
<title>dr7</title>
<polygon fill="none" stroke="black" points="786,-110 739,-110 739,-38 786,-38 786,-110"/>
<text text-anchor="middle" x="762.5" y="-70.3" font-family="Times,serif" font-size="14.00">ready</text>
</g>
<!-- dr8 -->
<g id="node36" class="node">
<title>dr8</title>
</g>
<!-- dr7&#45;&gt;dr8 -->
<g id="edge32" class="edge">
<title>dr7&#45;&gt;dr8</title>
<path fill="none" stroke="black" stroke-dasharray="5,2" d="M762.5,-37.84C762.5,-20.14 762.5,-2.16 762.5,-1.05"/>
</g>
<!-- dr1&#45;&gt;dr2 -->
<g id="edge26" class="edge">
<title>dr1&#45;&gt;dr2</title>
<path fill="none" stroke="black" stroke-dasharray="5,2" d="M762.5,-380.89C762.5,-378.79 762.5,-346.14 762.5,-344.1"/>
</g>
<!-- dr2&#45;&gt;dr3 -->
<g id="edge27" class="edge">
<title>dr2&#45;&gt;dr3</title>
<path fill="none" stroke="black" stroke-width="5" d="M762.5,-342.89C762.5,-340.79 762.5,-308.14 762.5,-306.1"/>
</g>
<!-- dr3&#45;&gt;dr4 -->
<g id="edge28" class="edge">
<title>dr3&#45;&gt;dr4</title>
<path fill="none" stroke="black" stroke-dasharray="5,2" d="M762.5,-304.89C762.5,-302.79 762.5,-270.14 762.5,-268.1"/>
</g>
<!-- dr4&#45;&gt;dr5 -->
<g id="edge29" class="edge">
<title>dr4&#45;&gt;dr5</title>
<path fill="none" stroke="black" stroke-width="5" d="M762.5,-266.89C762.5,-264.79 762.5,-232.14 762.5,-230.1"/>
</g>
<!-- dr5&#45;&gt;dr6 -->
<g id="edge30" class="edge">
<title>dr5&#45;&gt;dr6</title>
<path fill="none" stroke="black" stroke-dasharray="5,2" d="M762.5,-228.89C762.5,-226.79 762.5,-194.14 762.5,-192.1"/>
</g>
<!-- dr6&#45;&gt;dr7 -->
<g id="edge31" class="edge">
<title>dr6&#45;&gt;dr7</title>
<path fill="none" stroke="black" stroke-width="5" d="M762.5,-190.92C762.5,-188.92 762.5,-151.86 762.5,-120.18"/>
<polygon fill="black" stroke="black" stroke-width="5" points="766.88,-120.13 762.5,-110.13 758.13,-120.13 766.88,-120.13"/>
<text text-anchor="middle" x="814" y="-161.8" font-family="Times,serif" font-size="14.00"> &#160;&#160;add Custom IDP</text>
<text text-anchor="middle" x="814" y="-146.8" font-family="Times,serif" font-size="14.00"> &#160;to list of OIDC</text>
<text text-anchor="middle" x="814" y="-131.8" font-family="Times,serif" font-size="14.00"> &#160;authenticators</text>
</g>
</g>
</svg>
